<?xml version="1.0" standalone="no"?>
<!DOCTYPE svg PUBLIC "-//W3C//DTD SVG 20010904//EN"
 "http://www.w3.org/TR/2001/REC-SVG-20010904/DTD/svg10.dtd">
<svg version="1.0" xmlns="http://www.w3.org/2000/svg"
 width="1024.000000pt" height="1024.000000pt" viewBox="0 0 1024.000000 1024.000000"
 preserveAspectRatio="xMidYMid meet">
<metadata>
Created by potrace 1.14, written by Peter Selinger 2001-2017
</metadata>
<g transform="translate(0.000000,1024.000000) scale(0.100000,-0.100000)"
fill="#000000" stroke="none">
<path d="M4555 10229 c-27 -4 -59 -12 -70 -17 -33 -15 -68 -29 -105 -43 -49
-17 -281 -132 -316 -156 -32 -22 -76 -50 -169 -108 -33 -21 -62 -40 -65 -44
-3 -3 -39 -31 -80 -62 -93 -69 -263 -209 -310 -255 -246 -241 -332 -329 -425
-433 -60 -68 -117 -131 -125 -139 -8 -8 -22 -25 -30 -38 -8 -12 -42 -54 -75
-94 -33 -39 -72 -89 -86 -110 -14 -21 -39 -54 -56 -73 -17 -20 -52 -66 -77
-104 -25 -37 -68 -99 -95 -138 -27 -38 -64 -95 -82 -125 -18 -30 -51 -82 -74
-115 -24 -33 -62 -96 -86 -140 -24 -44 -64 -111 -89 -150 -26 -38 -52 -86 -60
-105 -7 -19 -17 -39 -21 -45 -12 -16 -148 -287 -221 -440 -128 -269 -302 -723
-383 -1000 -9 -33 -21 -69 -26 -80 -12 -27 -74 -265 -85 -325 -3 -14 -13 -59
-23 -100 -25 -99 -41 -189 -41 -226 0 -17 -4 -34 -9 -39 -5 -6 -12 -35 -15
-65 -3 -30 -10 -109 -17 -175 -18 -191 1 -514 33 -553 6 -6 8 -12 5 -12 -22 0
83 -222 158 -334 69 -103 303 -352 440 -468 22 -19 54 -46 70 -61 57 -50 193
-162 269 -221 42 -32 76 -62 76 -66 0 -5 19 -20 43 -34 23 -15 68 -48 99 -74
32 -26 97 -78 145 -117 48 -38 108 -89 133 -112 24 -24 48 -43 53 -43 12 0
151 -125 274 -246 75 -74 114 -121 145 -178 24 -43 49 -87 55 -99 20 -34 16
-113 -7 -158 -27 -53 -92 -117 -127 -125 -16 -4 -50 -19 -78 -34 -27 -15 -75
-35 -105 -44 -30 -10 -71 -23 -90 -30 -19 -7 -60 -20 -90 -29 -142 -41 -272
-81 -340 -104 -41 -14 -125 -42 -186 -63 -96 -33 -181 -69 -234 -100 -8 -5
-49 -28 -90 -51 -41 -23 -80 -47 -86 -54 -7 -6 -25 -22 -40 -36 -16 -13 -36
-35 -45 -49 -9 -14 -37 -50 -63 -80 -25 -29 -46 -60 -46 -67 0 -7 -12 -27 -27
-45 -32 -37 -54 -69 -110 -154 -106 -161 -135 -206 -183 -289 -28 -49 -64
-108 -80 -130 -15 -22 -49 -80 -75 -130 -26 -49 -66 -124 -90 -165 -24 -41
-73 -133 -110 -205 -36 -72 -79 -154 -96 -184 -31 -55 -51 -106 -68 -176 -5
-22 -18 -68 -29 -102 l-20 -63 4214 0 c3741 0 4213 2 4208 15 -5 12 3 15 35
15 29 0 41 4 41 14 0 8 -4 18 -10 21 -5 3 -10 13 -10 20 0 8 -11 38 -24 67
-13 29 -36 83 -50 119 -15 37 -60 129 -101 205 -41 76 -75 142 -75 147 0 9
-57 108 -91 158 -9 14 -34 58 -54 99 -20 40 -51 95 -68 121 -18 26 -50 78 -72
115 -22 37 -59 96 -82 132 -24 36 -43 66 -43 68 0 9 -114 179 -158 236 -26 35
-51 70 -54 79 -10 25 -132 180 -170 215 -64 60 -337 206 -410 221 -18 3 -42
12 -53 19 -11 7 -31 15 -45 18 -14 3 -63 18 -110 34 -90 31 -201 66 -340 107
-47 14 -94 29 -105 34 -11 4 -45 16 -75 25 -172 54 -320 148 -320 203 0 11 -3
23 -6 26 -4 4 -9 29 -11 55 -6 74 52 179 172 314 53 60 100 108 104 108 5 0
39 30 77 68 38 37 87 80 108 96 22 16 60 48 86 70 91 80 175 146 184 146 4 0
40 29 81 64 40 36 87 72 104 81 17 8 31 20 31 25 0 5 42 40 93 78 50 39 108
87 127 107 19 20 51 46 70 57 19 12 67 52 105 89 39 38 84 79 100 91 42 33
208 202 285 293 126 148 215 315 253 475 40 166 40 172 34 380 -5 174 -27 406
-41 429 -3 3 -7 27 -11 51 -3 25 -8 52 -10 60 -2 8 -7 31 -10 50 -3 19 -10 49
-15 65 -6 17 -17 62 -26 100 -8 39 -19 86 -24 105 -5 19 -11 46 -14 60 -6 26
-60 200 -101 325 -12 39 -35 108 -49 155 -15 47 -36 103 -45 125 -10 22 -32
81 -50 132 -17 50 -41 116 -55 145 -13 29 -43 100 -66 158 -23 58 -68 159
-100 225 -31 66 -63 136 -70 155 -8 19 -21 46 -30 60 -10 14 -48 84 -85 155
-126 240 -253 454 -398 670 -33 50 -86 128 -117 175 -32 47 -65 92 -75 100 -9
8 -32 37 -49 65 -36 55 -245 312 -308 378 -22 23 -62 67 -89 97 -119 135 -293
304 -471 457 -88 77 -118 100 -268 213 -101 75 -344 228 -390 244 -14 5 -36
17 -50 26 -14 9 -43 23 -65 30 -22 7 -68 25 -102 40 -122 55 -169 60 -555 59
-194 -1 -375 -5 -403 -10z m600 -762 c11 -2 43 -8 70 -12 220 -31 418 -87 580
-166 22 -10 46 -19 54 -19 16 0 110 -50 217 -116 39 -24 74 -44 78 -44 5 0 28
-13 53 -30 24 -16 47 -30 52 -30 4 0 20 -13 36 -30 16 -16 33 -30 37 -30 11 0
116 -76 141 -102 10 -10 21 -18 25 -18 4 0 25 -17 46 -37 21 -20 57 -49 79
-64 22 -15 114 -100 205 -190 155 -155 296 -319 391 -454 23 -33 59 -84 79
-113 21 -29 47 -70 57 -90 11 -20 37 -68 59 -105 21 -38 58 -115 81 -173 23
-57 47 -110 52 -117 6 -6 27 -66 48 -132 20 -66 42 -133 48 -150 13 -35 11
-23 32 -150 24 -142 25 -154 31 -320 7 -171 -9 -378 -41 -540 -7 -38 -19 -99
-25 -135 -15 -84 -55 -260 -76 -330 -9 -30 -17 -59 -19 -65 -3 -14 -44 -149
-67 -219 -11 -33 -32 -88 -48 -123 -16 -35 -26 -63 -23 -63 3 0 1 -6 -5 -13
-6 -7 -21 -39 -33 -72 -31 -85 -224 -467 -274 -545 -23 -36 -68 -108 -99 -160
-31 -52 -64 -106 -75 -120 -10 -14 -48 -70 -84 -126 -37 -55 -75 -109 -87
-119 -11 -10 -20 -22 -20 -26 0 -11 -53 -91 -106 -159 -23 -30 -58 -76 -76
-102 -49 -71 -176 -236 -228 -298 -26 -30 -62 -77 -80 -105 -19 -27 -42 -59
-51 -70 -52 -60 -78 -93 -92 -120 -9 -16 -35 -50 -58 -74 -22 -24 -71 -83
-107 -130 -36 -47 -82 -104 -102 -126 -19 -22 -51 -62 -69 -90 -19 -27 -48
-63 -65 -80 -17 -16 -57 -61 -88 -100 -78 -98 -294 -302 -306 -290 -2 2 17 31
44 64 27 33 68 87 92 120 24 33 69 89 102 125 32 35 77 92 100 127 24 34 59
80 79 102 20 22 50 59 66 83 17 23 70 96 119 161 49 65 114 152 145 193 31 41
63 87 70 102 8 15 22 36 32 47 10 10 52 70 95 132 42 63 93 136 113 163 20 27
45 65 56 83 11 18 49 77 85 131 36 53 70 105 75 114 11 19 150 229 200 303 18
28 50 79 71 115 20 36 60 103 89 150 29 47 80 139 115 205 35 66 71 134 79
150 9 17 24 41 34 55 10 14 31 61 48 104 17 44 48 113 69 155 21 42 53 117 70
166 18 50 38 104 45 120 7 17 25 66 39 110 15 44 31 89 36 100 14 31 47 145
60 205 7 30 16 60 21 66 5 6 6 13 3 17 -3 3 0 16 7 28 7 13 14 35 15 49 2 14
14 80 28 148 13 67 22 131 19 141 -3 10 0 22 6 25 7 4 11 41 11 90 0 51 5 87
12 94 10 10 10 17 0 33 -7 11 -11 33 -8 47 11 53 10 138 -3 212 -17 102 -69
327 -81 348 -5 9 -18 45 -29 79 -11 34 -31 85 -45 115 -24 52 -48 108 -51 118
-5 16 -78 171 -96 205 -31 56 -169 267 -188 286 -9 9 -34 43 -56 75 -104 150
-443 485 -578 571 -28 18 -53 37 -56 41 -9 14 -141 102 -152 102 -5 0 -32 16
-60 35 -28 19 -57 35 -64 35 -7 0 -18 7 -25 15 -16 20 -84 57 -145 79 -27 10
-68 27 -90 37 -91 41 -184 77 -245 93 -36 10 -73 22 -82 27 -18 9 -254 51
-395 70 -106 14 -555 7 -613 -10 -19 -5 -73 -15 -120 -21 -130 -18 -311 -62
-385 -95 -16 -7 -66 -25 -110 -40 -104 -34 -279 -119 -294 -143 -3 -5 -28 -20
-56 -33 -44 -21 -75 -41 -200 -130 -16 -11 -1 7 35 41 36 34 88 78 115 96 28
19 77 54 110 78 33 25 64 45 68 45 4 1 47 25 96 55 48 29 141 77 207 106 65
28 133 58 149 65 52 23 148 53 205 64 155 30 211 40 270 46 36 4 67 9 70 12 6
6 374 -3 405 -10z m-2517 -1399 c-14 -24 -34 -59 -45 -79 -11 -19 -35 -78 -54
-130 -18 -52 -40 -105 -48 -119 -9 -13 -15 -24 -13 -25 2 0 1 -7 -2 -15 -2 -8
-12 -40 -22 -70 -10 -30 -18 -58 -19 -62 0 -3 -3 -10 -7 -14 -5 -4 -8 -18 -8
-30 0 -13 -4 -25 -9 -28 -5 -3 -12 -23 -16 -43 -5 -21 -9 -42 -11 -48 -2 -5
-8 -39 -14 -74 -6 -36 -13 -68 -15 -72 -3 -4 -7 -25 -10 -48 -3 -22 -12 -71
-21 -108 -8 -37 -19 -106 -24 -153 -9 -85 -6 -519 4 -575 3 -16 8 -46 11 -65
3 -19 10 -62 15 -95 10 -54 15 -87 24 -150 2 -11 6 -27 9 -35 3 -8 11 -46 18
-85 6 -38 14 -74 18 -80 3 -5 7 -18 8 -27 2 -9 10 -36 19 -60 8 -24 19 -57 23
-73 4 -17 15 -46 24 -65 9 -19 30 -71 46 -115 60 -165 81 -214 125 -301 25
-49 52 -100 60 -114 8 -14 28 -52 44 -85 54 -110 187 -330 257 -425 19 -25 34
-48 34 -52 2 -15 210 -311 262 -371 18 -21 48 -62 68 -91 37 -54 124 -167 206
-266 25 -30 69 -85 98 -121 28 -36 97 -121 152 -189 55 -67 120 -148 143 -179
24 -31 61 -74 81 -96 20 -22 61 -71 91 -110 30 -38 62 -76 73 -84 10 -7 35
-39 55 -70 19 -31 59 -81 87 -111 28 -30 77 -86 110 -125 65 -75 114 -124 169
-168 36 -29 90 -42 206 -51 66 -5 281 16 355 34 22 5 51 12 65 14 14 2 54 14
90 25 35 11 65 19 67 17 3 -3 -70 -56 -135 -98 -23 -15 -64 -33 -90 -39 -26
-7 -51 -15 -57 -19 -5 -5 -23 -9 -40 -11 -16 -2 -35 -7 -40 -11 -12 -8 -219
-14 -250 -7 -61 14 -163 74 -224 131 -36 35 -95 91 -131 125 -36 34 -83 81
-105 104 -153 158 -201 208 -285 298 -52 56 -120 128 -150 159 -64 67 -84 89
-251 277 -160 181 -264 303 -314 370 -22 30 -68 89 -102 132 -139 175 -235
308 -318 439 -22 34 -64 100 -93 146 -118 183 -253 440 -346 659 -55 131 -77
191 -122 344 -19 66 -39 129 -43 140 -7 16 -32 117 -45 185 -2 8 -6 22 -9 30
-3 8 -8 40 -11 70 -3 30 -10 84 -16 120 -32 196 -48 570 -30 690 5 30 11 84
14 120 7 95 34 250 50 290 8 20 17 58 21 85 4 28 14 66 22 85 8 19 26 69 40
110 14 41 52 130 84 198 33 68 59 127 59 131 0 5 6 14 14 20 8 7 17 23 20 36
7 28 117 207 124 201 2 -3 -7 -24 -20 -48z m-36 -849 c39 -6 114 -26 167 -45
123 -44 92 -30 346 -156 54 -27 138 -79 275 -171 25 -17 70 -51 100 -77 30
-25 75 -60 100 -77 25 -17 75 -60 111 -94 36 -35 81 -78 100 -94 30 -27 96
-97 257 -275 27 -30 62 -73 77 -95 14 -22 44 -60 65 -85 22 -25 52 -63 66 -85
151 -224 192 -291 266 -425 48 -85 103 -195 123 -245 20 -49 45 -109 56 -133
10 -23 19 -48 19 -55 0 -11 -110 -56 -176 -72 -178 -45 -187 -46 -339 -40
-168 7 -212 11 -270 27 -22 6 -49 13 -60 15 -11 2 -29 7 -40 12 -11 5 -45 17
-75 27 -30 9 -75 27 -100 40 -25 12 -61 30 -80 39 -38 18 -112 62 -203 121
-75 48 -278 226 -342 299 -72 84 -159 198 -191 252 -15 26 -36 57 -46 68 -22
23 -180 342 -198 400 -7 22 -19 49 -26 60 -7 11 -17 38 -23 60 -5 22 -21 77
-35 123 -14 45 -29 112 -35 150 -5 37 -15 96 -21 132 -16 92 -17 277 -2 292 7
7 12 20 12 29 0 18 38 89 47 89 2 0 36 -5 75 -11z m4872 -28 c4 -5 0 -11 -6
-14 -10 -3 -10 -7 0 -19 7 -9 19 -35 27 -59 l14 -44 -6 50 c-5 45 -4 49 10 37
52 -43 -42 -581 -134 -767 -6 -12 -11 -27 -13 -35 -2 -8 -8 -28 -14 -43 -7
-16 -12 -32 -12 -36 0 -4 -37 -81 -83 -172 -114 -224 -200 -354 -339 -509 -88
-99 -232 -229 -291 -265 -19 -11 -65 -41 -103 -66 -38 -25 -91 -57 -119 -71
-86 -44 -288 -118 -340 -124 -27 -4 -56 -11 -63 -17 -25 -20 -278 -21 -377 -2
-49 10 -103 19 -118 21 -15 2 -35 8 -45 13 -9 5 -41 12 -70 16 -34 4 -56 13
-59 22 -6 16 14 136 27 163 4 8 18 42 31 75 13 33 32 74 43 92 12 17 38 62 59
100 89 160 221 366 256 397 12 11 21 24 21 29 0 15 65 109 90 132 13 11 42 46
66 77 159 215 521 554 723 678 31 19 80 52 109 72 28 21 91 57 139 81 48 25
126 63 173 87 122 61 209 90 298 99 42 5 82 9 89 10 6 0 14 -3 17 -8z m-2294
-2740 c0 -1 -11 -24 -24 -50 -12 -26 -29 -65 -36 -86 -21 -65 -69 -142 -105
-169 l-34 -27 -6 28 c-7 28 -15 51 -56 158 -24 63 -52 109 -82 135 -16 14 -1
15 162 15 100 0 181 -2 181 -4z"/>
<path d="M10080 80 l0 -80 80 0 80 0 0 80 0 80 -80 0 -80 0 0 -80z"/>
</g>
</svg>
